<svg width="868" height="181" viewBox="0 0 868 181" fill="none" xmlns="http://www.w3.org/2000/svg">
<path d="M26.186 173.26H121.13L66.434 22.846L8.9 181H0.644L66.434 0.141991L132.224 181H26.186V173.26ZM305.832 0.399988V8.14H245.202V181H237.462V8.14H176.832V0.399988H305.832ZM464.056 86.572H387.43L466.378 8.14H379.174V173.26H479.278V181H371.434V0.399988H485.212L406.264 78.832H464.056V86.572ZM576.331 173.26H656.311L563.947 13.558V181H556.207V0.399988H565.237L661.729 167.326V0.399988H669.469V181H576.331V173.26ZM761.244 173.26H856.188L801.492 22.846L743.958 181H735.702L801.492 0.141991L867.282 181H761.244V173.26Z" fill="white"/>
</svg>
